# AST/ASF file generated using VICON BodyLanguage
# -----------------------------------------------
:version 1.10
:name VICON
:units
  mass 1.0
  length 0.45
  angle deg
:documentation
   .ast/.asf automatically generated from VICON data using
   VICON BodyBuilder and BodyLanguage model FoxedUp or BRILLIANT.MOD
:root
   order TX TY TZ RX RY RZ
   axis XYZ
   position 0 0 0  
   orientation 0 0 0 
:bonedata
  begin
     id 1 
     name lhipjoint
     direction 0.714689 -0.624256 0.315473 
     length 2.45343 
     axis 0 0 0  XYZ
  end
  begin
     id 2 
     name lfemur
     direction 0.34202 -0.939693 0  
     length 6.59069  
     axis 0 0 20  XYZ
    dof rx ry rz
    limits (-160.0 20.0)
           (-70.0 70.0)
           (-60.0 70.0)
  end
  begin
     id 3 
     name ltibia
     direction 0.34202 -0.939693 0   
     length 6.73476   
     axis 0 0 20   XYZ
    dof rx
    limits (-10.0 170.0)
  end
  begin
     id 4 
     name lfoot
     direction 0.0718085 -0.197292 0.977711   
     length 1.52607   
     axis -90 7.62852e-016 20   XYZ
    dof rx rz
    limits (-45.0 90.0)
           (-70.0 20.0)
  end
  begin
     id 5 
     name ltoes
     direction 1.53553e-011 -4.22024e-011 1   
     length 0.777832   
     axis -90 7.62852e-016 20   XYZ
    dof rx
    limits (-90.0 20.0)
  end
  begin
     id 6 
     name rhipjoint
     direction -0.727419 -0.612432 0.309497   
     length 2.50079  
     axis 0 0 0  XYZ 
  end
  begin
     id 7 
     name rfemur
     direction -0.34202 -0.939693 0   
     length 6.51665   
     axis 0 0 -20   XYZ
    dof rx ry rz
    limits (-160.0 20.0)
           (-70.0 70.0)
           (-70.0 60.0)
  end
  begin
     id 8 
     name rtibia
     direction -0.34202 -0.939693 0   
     length 6.48919   
     axis 0 0 -20   XYZ
    dof rx
    limits (-10.0 170.0)
 end
 begin
     id 9 
     name rfoot
     direction -0.112205 -0.308282 0.944655   
     length 1.68717  
     axis -90 -7.62852e-016 -20   XYZ
    dof rx rz
    limits (-45.0 90.0)
           (-20.0 70.0)
  end
  begin
     id 10 
     name rtoes
     direction -1.53583e-011 -4.21993e-011 1   
     length 0.846859   
     axis -90 -7.62852e-016 -20   XYZ
    dof rx
    limits (-90.0 20.0)
  end
  begin
     id 11 
     name lowerback
     direction -0.00119603 0.996364 -0.0851956   
     length 1.67242   
     axis 0 0 0   XYZ
    dof rx ry rz
    limits (-20.0 45.0)
           (-30.0 30.0)
           (-30.0 30.0)
  end
  begin
     id 12 
     name upperback
     direction -0.00531001 0.998318 0.0577248   
     length 1.64819   
     axis 0 0 0   XYZ
    dof rx ry rz
    limits (-20.0 45.0)
           (-30.0 30.0)
           (-30.0 30.0)
  end
  begin
     id 13 
     name thorax
     direction -0.00653676 0.995132 0.0983291   
     length 1.67429   
     axis 0 0 0   XYZ
    dof rx ry rz
    limits (-20.0 45.0)
           (-30.0 30.0)
           (-30.0 30.0)
  end
  begin
     id 14 
     name lowerneck
     direction 0.0141424 0.999886 0.00525412   
     length 1.59623   
     axis 0 0 0   XYZ
    dof rx ry rz
    limits (-20.0 45.0)
           (-30.0 30.0)
           (-30.0 30.0)
  end
  begin
     id 15 
     name upperneck
     direction -0.0640064 0.987178 -0.146232   
     length 1.59576   
     axis 0 0 0   XYZ
    dof rx ry rz
    limits (-20.0 45.0)
           (-30.0 30.0)
           (-30.0 30.0)
  end
  begin
     id 16
     name head
     direction -0.0222942 0.998496 -0.0500859  
     length 1.60959  
     axis 0 0 0   XYZ
    dof rx ry rz
    limits (-20.0 45.0)
           (-30.0 30.0)
           (-30.0 30.0)
  end
  begin
     id 17 
     name lclavicle
     direction 0.908549 0.392612 0.142806  
     length 2.80649  
     axis 0 0 0   XYZ
    dof ry rz
    limits (-20.0 10.0)
           (0.0 20.0)
  end
  begin
     id 18 
     name lhumerus
     direction 1 -4.48968e-011 1.08832e-028   
     length 4.2884   
     axis -180 -30 -90   XYZ
    dof rx ry rz
    limits (-60.0 90.0)
           (-90.0 90.0)
           (-90.0 90.0)
  end
  begin
     id 19
     name lradius
     direction 1 -4.48952e-011 -3.02642e-028   
     length 3.06552   
     axis -180 -30 -90   XYZ
    dof rx
    limits (-10.0 170.0)
  end
  begin
     id 20
     name lwrist
     direction 1 -4.49014e-011 1.58672e-027   
     length 1.53276   
     axis -1.65735e-015 90 90   XYZ
    dof ry
    limits (-180.0 0.0)
 end
  begin
     id 21 
     name lhand
     direction 1 -4.48928e-011 3.17344e-027   
     length 0.753045   
     axis -2.02492e-015 90 90   XYZ
    dof rx rz
    limits (-90.0 90.0)
           (-45.0 45.0)
  end
  begin
     id 22 
     name lfingers
     direction 1 -4.48958e-011 6.34687e-027   
     length 0.607124   
     axis -4.04985e-015 90 90   XYZ
    dof rx
    limits (0.0 90.0)
  end
  begin
     id 23
     name lthumb
     direction 0.707107 -6.34905e-011 0.707107   
     length 0.871712   
     axis -90 45 2.85299e-015   XYZ
    dof rx rz
    limits (-45.0 45.0)
           (-45.0 45.0)
  end
  begin
     id 24 
     name rclavicle
     direction -0.885098 0.45949 0.0739604   
     length 2.9478  
     axis 0 0 0   XYZ 
    dof ry rz
    limits (-10.0 20.0)
           (-20.0 0.0)
  end
  begin
     id 25 
     name rhumerus
     direction -1 -4.4898e-011 -2.61739e-027  
     length 4.52172   
     axis -180 30 90   XYZ
    dof rx ry rz
    limits (-90.0 60.0)
           (-90.0 90.0)
           (-90.0 90.0)
  end
  begin
     id 26 
     name rradius
     direction -1 -4.48945e-011 9.02552e-028   
     length 2.8914   
     axis -180 30 90   XYZ
    dof rx
    limits (-10.0 170.0)
  end
  begin
     id 27 
     name rwrist
     direction -1 -4.49018e-011 1.58672e-027   
     length 1.4457   
     axis -1.65735e-015 -90 -90   XYZ
    dof ry
    limits (-180.0 0.0)
  end
  begin
     id 28
     name rhand
     direction -1 -4.48825e-011 3.17344e-027   
     length 0.680541   
     axis -2.02492e-015 -90 -90   XYZ
    dof rx rz
    limits (-90.0 90.0)
           (-45.0 45.0)
  end
  begin
     id 29
     name rfingers
     direction -1 -4.49067e-011 6.34687e-027   
     length 0.54867   
     axis -4.04985e-015 -90 -90   XYZ
    dof rx
    limits (0.0 90.0)
  end
  begin
     id 30
     name rthumb
     direction -0.707107 -6.34833e-011 0.707107   
     length 0.787783   
     axis -90 -45 -2.85299e-015   XYZ
    dof rx rz
    limits (-45.0 45.0)
           (-45.0 45.0)
  end
:hierarchy
  begin
    root lhipjoint rhipjoint lowerback
    lhipjoint lfemur
    lfemur ltibia
    ltibia lfoot
    lfoot ltoes
    rhipjoint rfemur
    rfemur rtibia
    rtibia rfoot
    rfoot rtoes
    lowerback upperback
    upperback thorax
    thorax lowerneck lclavicle rclavicle
    lowerneck upperneck
    upperneck head
    lclavicle lhumerus
    lhumerus lradius
    lradius lwrist
    lwrist lhand lthumb
    lhand lfingers
    rclavicle rhumerus
    rhumerus rradius
    rradius rwrist
    rwrist rhand rthumb
    rhand rfingers
  end

#!OML:ASF E:\emotionWalksFemale\Project 1\Capture day 1\Session 1\Female1.ASF
:FULLY-SPECIFIED
:DEGREES
870
root 9.79371 14.9284 -14.1353 176.749 3.01811 176.878
lowerback 6.28493 5.14326 5.17854
upperback -5.41143 7.54757 -1.28139
thorax -8.42007 3.40669 -5.21772
lowerneck -7.14848 -4.31844 -7.40662
upperneck 17.8496 -5.84496 1.48593
head 6.89177 -3.45065 1.18845
rclavicle -8.1452e-014 -5.1684e-015
rhumerus -8.14769 12.5179 -71.9125
rradius 34.6384
rwrist 25.6109
rhand -8.82592 -53.1174
rfingers 7.12502
rthumb 17.114 -82.3837
lclavicle -8.1452e-014 -5.1684e-015
lhumerus -65.7269 28.5246 7.95697
lradius 37.3187
lwrist 13.1141
lhand -23.6202 -26.4509
lfingers 7.12502
lthumb 2.84414 3.50993
rfemur -7.66338 -8.91271 16.617
rtibia 78.5219
rfoot -7.82557 2.66658
rtoes -20.2248
lfemur -13.9421 -2.47842 -37.2211
ltibia 34.2278
lfoot -20.3269 -0.679962
ltoes 12.6255
871
root 9.81279 14.9391 -14.2563 176.718 2.1923 177.063
lowerback 6.36967 4.80393 5.00079
upperback -5.20621 7.06647 -1.07361
thorax -8.34718 3.18773 -4.84461
lowerneck -7.8207 -4.37495 -7.07054
upperneck 17.8228 -5.82639 1.2187
head 6.9823 -3.41998 1.03497
rclavicle 2.38542e-014 9.93923e-016
rhumerus -9.76645 10.3097 -70.828
rradius 34.5934
rwrist 25.6892
rhand -9.08087 -52.7313
rfingers 7.12502
rthumb 16.8686 -82.0187
lclavicle 2.38542e-014 9.93923e-016
lhumerus -63.9896 29.3689 10.8979
lradius 36.2532
lwrist 12.1547
lhand -21.456 -24.7542
lfingers 7.12502
lthumb 4.93404 5.16834
rfemur -9.83708 -8.59284 16.8092
rtibia 80.5957
rfoot -9.33055 0.920112
rtoes -24.9265
lfemur -13.1757 -2.70323 -37.0648
ltibia 34.0896
lfoot -20.3775 -1.21262
ltoes 14.6882
872
root 9.83089 14.9494 -14.3788 176.782 1.20652 177.175
lowerback 6.46324 4.45801 4.80468
upperback -5.11196 6.58556 -0.925587
thorax -8.38974 2.96476 -4.53209
lowerneck -7.79961 -4.31459 -7.21492
upperneck 17.1932 -5.74415 1.70896
head 6.78975 -3.31804 1.23282
rclavicle -3.8266e-015 7.95139e-015
rhumerus -11.7313 8.12185 -69.5741
rradius 34.6241
rwrist 25.3993
rhand -10.154 -51.8829
rfingers 7.12502
rthumb 15.8353 -81.2553
lclavicle -3.8266e-015 7.95139e-015
lhumerus -61.88 29.7281 14.344
lradius 35.2982
lwrist 10.7564
lhand -19.288 -23.1044
lfingers 7.12502
lthumb 7.02711 6.75894
rfemur -12.2088 -8.31642 16.8967
rtibia 82.2736
rfoot -10.5272 -0.887819
rtoes -26.9721
lfemur -12.5163 -3.07756 -36.9904
ltibia 34.0086
lfoot -20.5237 -1.89253
ltoes 16.8854
873
root 9.85163 14.9501 -14.4977 176.788 0.173192 177.113
lowerback 6.71572 4.12621 4.46
upperback -5.02382 6.10774 -0.861962
thorax -8.53094 2.74418 -4.24002
lowerneck -8.05431 -4.3365 -7.27966
upperneck 16.9239 -5.75231 2.00282
head 6.75826 -3.28105 1.33478
rclavicle -3.98066e-014 -8.74653e-015
rhumerus -13.8326 5.87106 -68.2016
rradius 34.6623
rwrist 24.99
rhand -11.1916 -51.3441
rfingers 7.12502
rthumb 14.8359 -80.793
lclavicle -3.98066e-014 -8.74653e-015
lhumerus -59.4199 29.7366 18.0714
lradius 34.3878
lwrist 8.79592
lhand -16.605 -22.0981
lfingers 7.12502
lthumb 9.61646 7.66237
rfemur -14.4576 -7.82861 16.7905
rtibia 83.666
rfoot -11.5846 -2.53849
rtoes -25.1684
lfemur -11.8351 -3.599 -37.1118
ltibia 33.9782
lfoot -20.6941 -2.58415
ltoes 19.655
874
root 9.87478 14.9435 -14.6196 176.697 -0.808818 177.146
lowerback 6.91831 3.96566 4.17568
upperback -4.82583 5.61385 -0.772509
thorax -8.50694 2.4182 -3.91818
lowerneck -8.38001 -4.41913 -7.33053
upperneck 16.6041 -5.82035 2.22858
head 6.724 -3.27363 1.40608
rclavicle -1.38155e-014 -1.70955e-014
rhumerus -15.7031 3.66333 -66.6661
rradius 34.5491
rwrist 24.5452
rhand -10.683 -52.0771
rfingers 7.12502
rthumb 15.3258 -81.4892
lclavicle -1.38155e-014 -1.70955e-014
lhumerus -56.574 29.1709 22.4127
lradius 33.8307
lwrist 7.2665
lhand -13.8024 -21.1264
lfingers 7.12502
lthumb 12.3196 8.49071
rfemur -16.3144 -6.99829 16.8261
rtibia 84.748
rfoot -12.703 -4.23906
rtoes -25.8564
lfemur -11.0781 -4.14161 -37.1449
ltibia 34.006
lfoot -20.8386 -3.0308
ltoes 21.2788
875
root 9.89937 14.9437 -14.7439 176.602 -1.87706 177.289
lowerback 7.09492 3.64729 3.93125
upperback -4.57578 5.18909 -0.631704
thorax -8.41067 2.24404 -3.58423
lowerneck -8.75772 -4.57216 -7.34895
upperneck 16.1625 -5.94893 2.32057
head 6.65852 -3.29797 1.42369
rclavicle 1.42131e-014 5.1684e-015
rhumerus -17.5247 1.55268 -64.9125
rradius 34.2378
rwrist 23.7003
rhand -10.5668 -52.5527
rfingers 7.12502
rthumb 15.4377 -81.9562
lclavicle 1.42131e-014 5.1684e-015
lhumerus -54.2526 30.7071 24.9583
lradius 32.8657
lwrist 2.5238
lhand -10.5743 -21.213
lfingers 7.12502
lthumb 15.4306 8.19101
rfemur -17.9925 -6.00476 17.0103
rtibia 85.4532
rfoot -13.5962 -5.94081
rtoes -27.0908
lfemur -10.3245 -4.81874 -37.0549
ltibia 34.0599
lfoot -20.8668 -3.30043
ltoes 21.3748
